<?xml version="1.0" encoding="UTF-8"?>
<svg id="Layer_1" data-name="Layer 1" xmlns="http://www.w3.org/2000/svg" viewBox="0 0 110.78 88.43">
  <defs>
    <style>
      .cls-1 {
        fill: #f0efef;
      }

      .cls-1, .cls-2, .cls-3, .cls-4, .cls-5, .cls-6, .cls-7, .cls-8, .cls-9, .cls-10, .cls-11, .cls-12, .cls-13, .cls-14, .cls-15, .cls-16, .cls-17, .cls-18, .cls-19, .cls-20, .cls-21, .cls-22, .cls-23, .cls-24, .cls-25, .cls-26, .cls-27, .cls-28, .cls-29, .cls-30, .cls-31, .cls-32, .cls-33, .cls-34, .cls-35, .cls-36, .cls-37, .cls-38, .cls-39, .cls-40, .cls-41, .cls-42, .cls-43, .cls-44, .cls-45, .cls-46, .cls-47, .cls-48, .cls-49, .cls-50, .cls-51, .cls-52, .cls-53, .cls-54, .cls-55 {
        stroke-width: 0px;
      }

      .cls-2 {
        fill: #fab41d;
      }

      .cls-3 {
        fill: #2f3030;
      }

      .cls-4 {
        fill: #2d2b28;
      }

      .cls-5 {
        fill: #020204;
      }

      .cls-6 {
        fill: #919191;
      }

      .cls-7 {
        fill: #040404;
      }

      .cls-8 {
        fill: #9a9a99;
      }

      .cls-9 {
        fill: #bababa;
      }

      .cls-10 {
        fill: #372b1a;
      }

      .cls-11 {
        fill: #797979;
      }

      .cls-12 {
        fill: #010101;
      }

      .cls-13 {
        fill: #eeb129;
      }

      .cls-14 {
        fill: #fdb516;
      }

      .cls-15 {
        fill: #fab120;
      }

      .cls-16 {
        fill: #0f0f0f;
      }

      .cls-17 {
        fill: #f1b61d;
      }

      .cls-18 {
        fill: #f6ac1d;
      }

      .cls-19 {
        fill: #756234;
      }

      .cls-20 {
        fill: #5a5a5a;
      }

      .cls-21 {
        fill: #d7d6d6;
      }

      .cls-22 {
        fill: #0d0d18;
      }

      .cls-23 {
        fill: #e4e0d9;
      }

      .cls-24 {
        fill: #2b2b2b;
      }

      .cls-25 {
        fill: #ce9727;
      }

      .cls-26 {
        fill: #d5d4d4;
      }

      .cls-27 {
        fill: #7c622b;
      }

      .cls-28 {
        fill: #f4ac1d;
      }

      .cls-29 {
        fill: #202020;
      }

      .cls-30 {
        fill: #dca829;
      }

      .cls-31 {
        fill: #626261;
      }

      .cls-32 {
        fill: #fbad19;
      }

      .cls-33 {
        fill: #a07c2f;
      }

      .cls-34 {
        fill: #141515;
      }

      .cls-35 {
        fill: #282928;
      }

      .cls-36 {
        fill: #232424;
      }

      .cls-37 {
        fill: #8a8989;
      }

      .cls-38 {
        fill: #d1d3d4;
      }

      .cls-39 {
        fill: #898988;
      }

      .cls-40 {
        fill: #f9b423;
      }

      .cls-41 {
        fill: #353535;
      }

      .cls-42 {
        fill: #0b0b0b;
      }

      .cls-43 {
        fill: #131414;
      }

      .cls-44 {
        fill: #313232;
      }

      .cls-45 {
        fill: #313131;
      }

      .cls-46 {
        fill: #090909;
      }

      .cls-47 {
        fill: #434242;
      }

      .cls-48 {
        fill: #f5aa1c;
      }

      .cls-49 {
        fill: #8f8f8f;
      }

      .cls-50 {
        fill: #1c1c1c;
      }

      .cls-51 {
        fill: #4e4e4d;
      }

      .cls-52 {
        fill: #f5ae1e;
      }

      .cls-53 {
        fill: #292929;
      }

      .cls-54 {
        fill: #b7b6af;
      }

      .cls-55 {
        fill: #111;
      }
    </style>
  </defs>
  <path class="cls-50" d="M64.17,86.11c-10.41-.26-66.09-1.09-37.24-3-8.44-1.68,4.31.69,9.13-1-3.29.5-3.28-1.23-.73-1,2.15-.68,3.38,2.47,4.97,0-3.05-4.31-.7-6.25,1.99-7,1.36.13,1.86-4.84,3.32-2.21,8.05-7.66.9-1.31-3.32-6.8,1.66-.76-5.87-.18,3.99-3.37,1.62-3.04,4.05-7.43,7.94-6.63,1.69-2.29-.47-17.02-3.98-14-4.98,2.55-10.9,2.61-12.93-3.79,1.22,5.72-3.8,24.96,4.97,17.79.41,2.42,4.09-1.34,4.97,2-3.43-.5-4.93,7.6-7.95,5-9.18-8.42,4.82-31.7-10.94-41-2.01-2.32-14.61,1.13-10.94-5,3.79-1.26,17.75-.69,25.46.89-2.81-6.84,20.33-8.7,17.31,2.13,5.03,10.69,5.51,5.82,5.67,10.95,8.39-7.34,4.18,4.66,10.2,1.61-.47-3.66-.91-4.69,3.03-2.58,14.26,50.79-19.84,11.98-2.99,44-2.35,19-2.5,7.91,11.94,11,36.47,5.55-11.03.39-23.87,2ZM39.31,28.11c.27,2.43,3.62-2.06.99-2-1.8-3.33-3.72,1.17-.99,2ZM49.26,30.11c.29,1.78,1.42,0,1.88-.64-.87-.52-1.64-.75-1.88.64ZM52.24,80.11c-13.7,1.47,23.14,3.73,19.89,0-1.43-3.41-13.31-.52-19.89,0ZM37.93,24.63q.19-2.43-1.31-2.11c.31.49.69,1.11,1.31,2.11ZM69.08,82.64c.92.61,1.55.92,1.93-.18-.62-.5-1.17-.53-1.93.18ZM45.78,41.11c.46-.33.46-.66,0-.99-.46.33-.46.66,0,.99Z"/>
  <path class="cls-32" d="M42.3,13.11c-3.93,8.26-22.85,1.87,2.99-11,17.19-8.83,44.22,11.72,36.38,29.93-3.38-11.59-7.28-2.5-20.13-6.95,1.07-12.38-7.33-17.77-19.24-11.98Z"/>
  <path class="cls-18" d="M28.37,21.11c6.6,3.5,6.09,11.11,7.95,16,2.24,23.83-13.96-6.17-7.95-16Z"/>
  <path class="cls-55" d="M15.44,84.11c9.82,2.93,22.29-1.23,30.83,2-8.3-1.12-29.23,2.51-30.83-2Z"/>
  <path class="cls-49" d="M36.33,81.11c-1.88-1.91-1.79-20.28,0-19,0,6.09,2.66,12.69,0,19Z"/>
  <path class="cls-43" d="M14.45,85.11c7.4.43-6.32,2.58-9.74,2-3.49-2.06,7.5-2.24,9.74-2Z"/>
  <path class="cls-35" d="M12.46,87.11c4.87-2.72,13.73-.14,19.89-1-4.86,2.72-13.71.14-19.89,1Z"/>
  <path class="cls-24" d="M74.12,86.11c4.87.81,12.35-1.65,15.91,1-4.87-.8-12.35,1.65-15.91-1Z"/>
  <path class="cls-31" d="M97.99,87.11c5.12.31,8.09-1.34,12.79.33-2.71,1.09-10.56,1.64-12.79-.33Z"/>
  <path class="cls-39" d="M3.51,86.11c.52,2.11,4.24.54,5.97,1-1.6,3.06-15.96-.04-5.97-1Z"/>
  <path class="cls-51" d="M82.08,46.11c-1.85-2.93.85-5.47,0-9,2.14.18,1.08,12.46,0,9Z"/>
  <path class="cls-42" d="M17.43,19.11c2.92,2.72,8.01-.96,9.95,2-3.02-.78-13.08,2-9.95-2Z"/>
  <path class="cls-52" d="M82.08,37.11c-.89,3.52-1.32-4.58-1.99-6,4.85.55,2.76,1.44,1.99,6Z"/>
  <path class="cls-34" d="M76.11,75.11c-.38-1.45.98-4.72-.99-5-8.38-1.1,7.42-2.74.99,5Z"/>
  <path class="cls-16" d="M64.17,86.11c1.53-2,6.03-.33,8.6-.81.19,1.98-6.42.28-8.6.81Z"/>
  <path class="cls-6" d="M82.08,47.11c2.19-1.86,3.33.53,2.98,3-1.45.31-.54-1.81-1.99-2.02.26,5.11-1.59,2.35-.99-.98Z"/>
  <path class="cls-12" d="M33.34,82.11h2.72c-7.44,2.52-11.19-.8-2.72,0Z"/>
  <path class="cls-41" d="M83.07,51.11c-.97-6.77,4.38,1.79,1,3-.38-.98.92-2.53-1-3Z"/>
  <path class="cls-12" d="M86.05,83.11c-1.86,1.41-4.11,1.41-5.97,0h5.97Z"/>
  <path class="cls-7" d="M23.4,83.11h3.54c-4.35,2.23-8.7-.44-3.54,0Z"/>
  <path class="cls-12" d="M20.42,14.11c-.38,1.57-2.3.73-2.31,2.83-2.37-2.24-.85-3.32,2.31-2.83Z"/>
  <path class="cls-29" d="M36.33,62.11c-.36-1.21-1.42-1.33-.99-3,2.57.81,4.1,2.16.99,3Z"/>
  <path class="cls-12" d="M93.02,84.11c-1.62,1.44-3.35,1.44-4.97,0,1.66,0,3.32,0,4.97,0Z"/>
  <path class="cls-50" d="M72.13,59.11c.88-.06,1,.51,1,1.2.27,6.07-1.6,3.04-1-1.2Z"/>
  <path class="cls-12" d="M73.13,58.11c1.62-1.44,3.35-1.44,4.97,0h-4.97Z"/>
  <path class="cls-24" d="M91.03,84.11c-1.22-.29-3.89.82-3.98-1,1.22.29,3.87-.83,3.98,1Z"/>
  <path class="cls-35" d="M13.45,85.11h-3.98c-.15-1.55,4.65-1.57,3.98,0Z"/>
  <path class="cls-52" d="M83.07,25.11c-1.82-.11-.7-2.78-.99-4,1.82.11.7,2.78.99,4Z"/>
  <path class="cls-24" d="M97.99,85.11c-1.22-.3-3.87.83-3.98-1,1.22.29,3.87-.83,3.98,1Z"/>
  <path class="cls-44" d="M36.33,52.11c-.3,1.22.83,3.89-.99,4,.3-1.22-.83-3.89.99-4Z"/>
  <path class="cls-24" d="M83.07,83.11c-3.21.6-6.05-1.22-1.17-1,.68,0,1.23.13,1.17,1Z"/>
  <path class="cls-12" d="M79.09,82.11c.59,1.42-2.95,1.62-2.98,0,.99,0,1.99,0,2.98,0Z"/>
  <path class="cls-12" d="M25.39,15.11c-1,1.37-1.98,1.37-2.98,0h2.98Z"/>
  <path class="cls-12" d="M75.11,81.11c.38-.98-.92-2.53.99-3-.24,1.12.74,3.41-.99,3Z"/>
  <path class="cls-15" d="M48.26,1.11c-.08,1.5-1.24.85-1.99,1,.08-1.5,1.24-.85,1.99-1Z"/>
  <path class="cls-15" d="M43.29,3.11c-.08,1.5-1.24.85-1.99,1,.08-1.5,1.24-.85,1.99-1Z"/>
  <path class="cls-50" d="M73.13,64.11c.93-.07,1.05.57.98,1.24-.77,1.93-1.19-.19-.98-1.24Z"/>
  <path class="cls-15" d="M45.28,2.11c.03.69-.31,1.03-.99,1-.03-.69.31-1.03.99-1Z"/>
  <path class="cls-15" d="M41.3,4.11c.03.69-.31,1.03-.99,1-.03-.69.31-1.03.99-1Z"/>
  <path class="cls-50" d="M13.45,85.11c-.14-.9.09-1.14.99-1,.14.9-.09,1.14-.99,1Z"/>
  <path class="cls-3" d="M75.11,81.11c.9-.14,1.14.1.99,1-.9.14-1.14-.1-.99-1Z"/>
  <path class="cls-36" d="M101.97,86.11c-.69.03-1.02-.31-.99-1,.69-.03,1.02.31.99,1Z"/>
  <path class="cls-41" d="M83.07,56.11c-.03-.69.31-1.03.99-1,.03.69-.31,1.03-.99,1Z"/>
  <path class="cls-41" d="M82.08,56.11c1.31-.36,1.25,1.04,0,1,0-.33,0-.67,0-1Z"/>
  <path class="cls-48" d="M40.31,42.11c6.55,1.69,8.1-.11,11.22-2.06,16.18,24.6-25.85,13.59-11.22,2.06Z"/>
  <path class="cls-1" d="M37.32,62.11c13.86,8.2,10.79,4.86,1.15,15.36.52,11.8-2.56-9.08-1.15-15.36Z"/>
  <path class="cls-21" d="M69.15,78.11c9.62,4.31-13.41,4.05-14.92,2,5.33-.18,11,.52,14.92-2Z"/>
  <path class="cls-23" d="M37.32,50.11c2.94,1.88,11.91,5.76,3.98,5-4.74,2.15-4.05-.39-3.98-5Z"/>
  <path class="cls-12" d="M54.23,81.11c3,.66,14.46-1.42,13.14.98-4.63.32-25.34-.14-13.14-.98Z"/>
  <path class="cls-53" d="M46.27,57.11c6.11-.37-4.31,9.31-4.97,5,1.95-1.28,3.7-3.04,4.97-5Z"/>
  <path class="cls-4" d="M75.11,28.11c2.11,2.83.72,4.46-2.46,4.09-1.43-2.3.24-4.65,2.46-4.09Z"/>
  <path class="cls-52" d="M74.12,26.11c3.39.94,3.82-1.72,7.02-1.83-2.43,4.47-3.95,5.5-7.02,1.83Z"/>
  <path class="cls-29" d="M48.26,59.11c.72-2.54-2.41-2.31-2.98-4,4.21-.7,7.1,0,2.98,4Z"/>
  <path class="cls-27" d="M40.31,42.11c-3.88.85-2.94-1.9-2.98-4.79.52,1.98,2.12,3.18,2.98,4.79Z"/>
  <path class="cls-9" d="M63.18,80.11h-7.96c.46-1.7,8.09-1.71,7.96,0Z"/>
  <path class="cls-4" d="M74.12,26.11c.57,2.25-5.99,3.13-5.97,1,2.13.51,3.84-1.51,5.97-1Z"/>
  <path class="cls-10" d="M36.33,37.11c-2.29-1.06-.42-5.69-1-8,2.29,1.06.42,5.69,1,8Z"/>
  <path class="cls-24" d="M75.11,82.11c1.89.62,4.33,1.58,1.12,3.02-2.02-.21-1.71-3.68-1.12-3.02Z"/>
  <path class="cls-5" d="M81.08,37.11c0,2.33,0,4.67,0,7-1.38-2.1-1.38-4.9,0-7Z"/>
  <path class="cls-28" d="M49.26,12.11c.05-2.36,5.5-3.04,5.97-1-2.16-.7-3.92.99-5.97,1Z"/>
  <path class="cls-14" d="M42.3,13.11c1.62-1.44,3.35-1.44,4.97,0h-4.97Z"/>
  <path class="cls-16" d="M72.13,59.11v5c-1.43-1.63-1.43-3.37,0-5Z"/>
  <path class="cls-33" d="M68.15,27.11c-.53,3.13-2.47,1.2-2.98-1,1.27-.49,1.93.86,2.98,1Z"/>
  <path class="cls-40" d="M38.32,27.11c-.89-4.97,4.26,1.02.99,1,.02-.69-.31-1.03-.99-1Z"/>
  <path class="cls-22" d="M54.23,55.11v-4c1.35,1.27,1.35,2.73,0,4Z"/>
  <path class="cls-12" d="M82.08,47.11v3c-2.01-.87-.13-5.38,0-3Z"/>
  <path class="cls-30" d="M37.93,24.63c-.62-1-1-1.62-1.31-2.11q1.5-.32,1.31,2.11Z"/>
  <path class="cls-12" d="M69.15,78.11c-.47,1.93-2,.62-2.98,1,.47-1.93,2-.62,2.98-1Z"/>
  <path class="cls-12" d="M49.26,80.11c1-1.37,1.98-1.37,2.98,0h-2.98Z"/>
  <path class="cls-9" d="M49.26,80.11c1.12.23,3.4-.74,2.98,1-1.12-.23-3.4.74-2.98-1Z"/>
  <path class="cls-12" d="M37.32,81.11h2.98c-1,1.37-1.98,1.37-2.98,0Z"/>
  <path class="cls-46" d="M38.32,56.11c.66,0,1.33,0,1.99,0-.09,1.61-2.49,1.3-1.99,0Z"/>
  <path class="cls-2" d="M40.31,16.11v-1.95c1.64.5,1.21,2.37,0,1.95Z"/>
  <path class="cls-12" d="M39.31,62.11c-1.22.11-.98-1.16-.99-2,1.49.09.84,1.24.99,2Z"/>
  <path class="cls-25" d="M40.31,28.11v-2c1.43-.23,1.3,2.27,0,2Z"/>
  <path class="cls-30" d="M49.26,30.11c.24-1.39,1-1.16,1.88-.64-.14.99-1.19.56-1.88.64Z"/>
  <path class="cls-19" d="M65.57,31.04c-.62-.69-.65-1.68.15-1.84.95-.15.43,1.54-.15,1.84Z"/>
  <path class="cls-20" d="M82.08,52.11c.06.48-.11.8-.64.89-1.24-1.14.88-2.9.64-.89Z"/>
  <path class="cls-38" d="M40.31,56.11c-2.21.04-.07-1.41,1-.97.03.67-.31.99-1,.97Z"/>
  <path class="cls-12" d="M42.3,55.11h1.99c.22,1.44-2.25,1.31-1.99,0Z"/>
  <path class="cls-12" d="M69.08,82.64c.77-.71,1.32-.68,1.93-.18-.38,1.1-1.02.8-1.93.18Z"/>
  <path class="cls-26" d="M52.24,81.11c-.35-1.46.98-.91,1.99-1,.35,1.46-.98.91-1.99,1Z"/>
  <path class="cls-45" d="M76.11,71.11v2c-1.59-.09-1.3-2.5,0-2Z"/>
  <path class="cls-12" d="M45.28,71.11c.08-1.5,1.24-.85,1.99-1,.11,1.23-1.15.99-1.99,1Z"/>
  <path class="cls-12" d="M73.13,64.11v2c-1.59-.09-1.3-2.5,0-2Z"/>
  <path class="cls-28" d="M56.22,11.11c.69-.03,1.02.31.99,1-.69.03-1.02-.31-.99-1Z"/>
  <path class="cls-28" d="M57.21,12.11c.69-.03,1.02.31.99,1-.69.03-1.02-.31-.99-1Z"/>
  <path class="cls-28" d="M58.21,13.11c.69-.03,1.02.31.99,1-.69.03-1.02-.31-.99-1Z"/>
  <path class="cls-28" d="M59.2,14.11c.69-.03,1.02.31.99,1-.69.03-1.02-.31-.99-1Z"/>
  <path class="cls-47" d="M42.3,16.12c.56-.2,1.25.62.59.89-.45-.1-.67-.41-.59-.89Z"/>
  <path class="cls-12" d="M72.13,81.11c-.35-.95.79-1.54.79-.34-.04.16-.51.23-.79.34Z"/>
  <path class="cls-33" d="M38.32,25.11c.35.95-.79,1.54-.79.34.04-.16.51-.23.79-.34Z"/>
  <path class="cls-25" d="M40.31,26.11c-.69.03-1.02-.31-.99-1,.69-.03,1.02.31.99,1Z"/>
  <path class="cls-25" d="M38.32,27.11c.69-.03,1.02.31.99,1-.69.03-1.02-.31-.99-1Z"/>
  <path class="cls-26" d="M63.18,80.11c-.14-.9.09-1.14.99-1,.03.69-.31,1.03-.99,1Z"/>
  <path class="cls-12" d="M71.14,79.11c-.2-.56.62-1.26.88-.59-.1.46-.4.68-.88.59Z"/>
  <path class="cls-4" d="M75.11,27.11c.69-.03,1.02.31.99,1-.9.14-1.14-.1-.99-1Z"/>
  <path class="cls-12" d="M76.11,75.11c.35.95-.79,1.54-.79.34.04-.16.51-.23.79-.34Z"/>
  <path class="cls-12" d="M41.3,74.11c.95-.35,1.53.8.34.79-.16-.04-.23-.52-.34-.79Z"/>
  <path class="cls-25" d="M39.31,28.11c.95-.35,1.53.8.34.79-.16-.04-.23-.52-.34-.79Z"/>
  <path class="cls-12" d="M42.3,74.11c-.03-.69.31-1.03.99-1,.03.69-.31,1.03-.99,1Z"/>
  <path class="cls-52" d="M79.09,29.11c.69-.03,1.02.31.99,1-.69.03-1.02-.31-.99-1Z"/>
  <path class="cls-13" d="M49.26,30.11c.95-.35,1.53.8.34.79-.16-.04-.23-.52-.34-.79Z"/>
  <path class="cls-24" d="M45.78,41.11c-.46-.33-.46-.66,0-.99.46.33.46.66,0,.99Z"/>
  <path class="cls-17" d="M50.25,41.11c.04.49-.06.93-.66.79-.59-.62-.15-.93.66-.79Z"/>
  <path class="cls-41" d="M82.08,52.11c-.14-.9.09-1.14.99-1,.03.69-.31,1.03-.99,1Z"/>
  <path class="cls-12" d="M45.28,71.11c.95-.35,1.53.8.34.79-.16-.04-.23-.52-.34-.79Z"/>
  <path class="cls-47" d="M76.11,71.11c-.9.14-1.14-.1-.99-1,.69-.03,1.02.31.99,1Z"/>
  <path class="cls-29" d="M38.32,56.11c.36,1.31-1.03,1.26-.99,0,.33,0,.66,0,.99,0Z"/>
  <path class="cls-12" d="M82.08,56.11c.35.95-.79,1.54-.79.34.04-.16.51-.23.79-.34Z"/>
  <path class="cls-12" d="M45.28,67.11c-.2-.56.62-1.26.88-.59-.1.46-.4.68-.88.59Z"/>
  <path class="cls-29" d="M46.27,57.11c.03.69-.31,1.03-.99,1-.03-.69.31-1.03.99-1Z"/>
  <path class="cls-29" d="M44.28,59.11c.03.69-.31,1.03-.99,1-.03-.69.31-1.03.99-1Z"/>
  <path class="cls-29" d="M42.3,61.11c.03.69-.31,1.03-.99,1-.03-.69.31-1.03.99-1Z"/>
  <path class="cls-29" d="M40.31,63.11c-.69.03-1.02-.31-.99-1,.69-.03,1.02.31.99,1Z"/>
  <path class="cls-12" d="M42.3,65.11c-.2-.56.62-1.26.88-.59-.1.46-.4.68-.88.59Z"/>
  <path class="cls-29" d="M41.3,64.11c-.69.03-1.02-.31-.99-1,.9-.14,1.14.1.99,1Z"/>
  <path class="cls-11" d="M37.32,62.11c-.33,1.28.92,4.38-.99,4,.33-1.28-.92-4.38.99-4Z"/>
  <path class="cls-37" d="M36.33,66.11c.9-.14,1.14.1.99,1-.69.03-1.02-.31-.99-1Z"/>
  <path class="cls-8" d="M81.08,43.11c.24-1.12-.74-3.41.99-3-.38.98.92,2.53-.99,3Z"/>
  <path class="cls-54" d="M82.08,40.11c-1.46.35-.91-1-.99-2,1.46-.35.91,1,.99,2Z"/>
  <path class="cls-50" d="M75.11,27.11c.35,1.46-.98.91-1.99,1-.11-1.23,1.15-.99,1.99-1Z"/>
</svg>